<svg width="200" height="200" viewBox="0 0 200 200" style="height:100%;width:100%" xmlns="http://www.w3.org/2000/svg" version="1.1">
  <g>
    <path d="m169.52,155.16c-10.418,-5.4922 -18.941,-14.398 -24.246,-25.004l-1.3242,-2.6523l-1.3242,2.6523c-5.1133,10.609 -13.828,19.512 -24.246,25.004l-2.2734,1.3242l2.2734,1.3242c10.418,5.4922 18.941,14.207 24.246,25.004l1.3242,2.6523l1.3242,-2.6523c5.1133,-10.609 13.828,-19.512 24.246,-25.004l2.2734,-1.3242l-2.2734,-1.3242z" />
    <path d="m104.54,42.07l2.082,1.1367c6.25,3.5977 11.176,8.9023 14.777,15.156l1.1367,2.082l1.1367,-2.082c3.4102,-6.25 8.7148,-11.555 14.777,-15.156l2.082,-1.1367l-2.082,-1.1367c-6.25,-3.5977 -11.176,-8.9023 -14.777,-15.156l-1.1367,-2.082l-1.1367,2.082c-3.4102,6.25 -8.7148,11.555 -14.777,15.156l-2.082,1.1367z" />
    <path d="m64.19,36.57l1.3242,4.168l1.3242,-4.168c1.7031,-5.3047 5.6836,-9.6602 10.988,-11.367l3.7891,-1.3242l-3.7891,-1.3242c-5.1133,-1.8945 -9.2812,-6.0625 -10.988,-11.367l-1.3242,-4.168l-1.3242,4.168c-1.7031,5.3047 -5.6836,9.6602 -10.988,11.367l-3.7891,1.3242l3.7891,1.3242c5.3047,1.8945 9.2812,6.0625 10.988,11.367z" />
    <path d="m109.84,158.38c-0.94531,-0.37891 -1.5156,-1.1367 -1.5156,-2.082s0.56641,-1.7031 1.5156,-2.082c15.344,-5.3047 27.469,-17.809 32.203,-33.531c0.37891,-0.94531 1.1367,-1.5156 2.082,-1.5156c0.94531,0 1.7031,0.56641 2.082,1.5156c0.37891,1.5156 0.94531,2.8398 1.7031,4.5469l2.082,4.7344l6.0625,-45.844c0.1875,-1.3242 -0.37891,-2.2734 -0.94531,-2.6523c-0.56641,-0.75781 -1.5156,-1.1367 -2.6523,-1.1367l-106.84,0c-1.3242,0 -2.082,0.75781 -2.6523,1.1367c-0.37891,0.37891 -0.94531,1.5156 -0.94531,2.6523l7.5781,57.02l1.5156,-0.1875c17.238,-2.4609 32.773,-12.883 41.676,-28.227l0.56641,-0.94531l-0.75781,-0.75781c-1.7031,-1.7031 -2.6523,-3.9766 -2.6523,-6.6289c0,-5.1133 3.9766,-9.2812 9.0938,-9.2812c5.1133,0 9.0938,4.168 9.0938,9.2812s-3.9766,9.2812 -9.0938,9.2812l-0.94531,0l-0.94531,-0.1875l-0.37891,0.75781c-9.4727,16.672 -26.332,28.227 -45.086,30.879l-1.5156,0.1875l5.1133,38.645c0.37891,1.7031 1.7031,3.0312 3.4102,3.0312l81.457,0l-0.94531,-2.082c-5.6836,-12.32 -16.484,-21.98 -29.363,-26.527l-0.00024,-0.00099z" />
    <path d="m151.52,74.46c0,-1.5156 -0.37891,-2.8398 -0.56641,-4.3555c-1.8945,-8.3359 -7.5781,-15.156 -15.723,-18.184l-0.94531,-0.37891l-0.56641,0.56641c-4.3555,4.168 -7.5781,9.2812 -9.2812,14.965c-0.37891,0.94531 -1.1367,1.5156 -2.082,1.5156c-0.94531,0 -1.7031,-0.56641 -2.082,-1.5156c-3.2188,-10.797 -11.746,-19.512 -22.164,-23.109c-0.94531,-0.37891 -1.5156,-1.1367 -1.5156,-2.082c0,-0.94531 0.56641,-1.7031 1.5156,-2.082c2.6523,-0.94531 5.1133,-2.082 7.3867,-3.5977l2.4609,-1.5156l-2.6523,-0.94531c-4.3555,-1.5156 -8.9023,-1.7031 -13.262,-0.75781c-9.8516,2.082 -17.43,10.039 -19.133,20.078c-0.1875,0.56641 -0.37891,0.94531 -0.94531,1.5156c-0.37891,0.37891 -0.94531,0.37891 -1.5156,0.37891c-2.6523,-0.56641 -5.3047,-0.37891 -8.1445,0.1875c-8.9023,2.082 -15.344,9.8516 -15.723,19.133l0,1.5156l104.95,0l-0.01156,-1.33219z" />
  </g>
</svg>