<?xml version="1.0" encoding="UTF-8"?>
<svg enable-background="new 0 0 2630 1618.457" version="1.1" viewBox="0 0 2630 1618.457" xml:space="preserve" xmlns="http://www.w3.org/2000/svg">
	<polygon points="423.32 700.31 423.32 700.31" fill="#3C3A6E"/>
	<polygon points="822.48 700.31 822.48 700.31" fill="#3C3A6E"/>
	<path d="m88.359 778.62c-4.425 3.768-10.391 7.057-10.78 13.165 2.624 3.886 5.879 7.324 8.89 10.945 0.854 1.546 1.709 3.133 2.563 4.72l0.692-0.509c2.002 5.357 4.117 10.679 6.347 15.955l10.152-31.284-17.864-12.992z" fill="#3C3A6E"/>
	<path d="m1224.9 748.34v-585.24c-38.27-0.339-76.529-0.506-114.8-1.196-6.591 0.061-13.264-0.976-19.774 0.061-20.468-1.87-41.069-1.586-61.564-3.112l4.278 13.158h35.462l-28.693 20.804 11.008 33.724-28.724-20.89-28.66 20.89 10.939-33.708-28.716-20.821h35.462l4.665-14.348c-2.797-0.159-5.598-0.192-8.398 0.029-53.504-2.848-106.91-7.344-160.25-12.389-3.886-0.407-7.771-0.793-11.657-1.159-3.824-0.366-7.647-0.745-11.469-1.128l9.428 28.996h35.462l-28.693 20.804 11.008 33.724-28.724-20.89-28.66 20.89 10.939-33.708-28.716-20.821h35.462l9.524-29.292c-13.222-1.336-26.434-2.76-39.634-4.252-10.765-1.23-21.5-2.648-32.212-4.199l2.175 6.702-11.04-8.023c-9.617-1.463-19.216-3.036-28.799-4.698l-17.544 12.721 4.886-14.967c-48.032-8.709-95.734-19.376-143.54-29.256l-14.503 10.515 10.939 33.708-28.66-20.826-28.724 20.826 11.008-33.725-28.693-20.804h27.197c-4.28-1.54-8.92-2.069-13.344-3.065-57.166-11.698-114.27-23.761-171.29-36.09-1.261 0.041-3.804 0.143-5.066 0.183l0.448-1.241c-17.373-3.927-34.788-7.792-52.059-12.186-10.864-2.767-20.893-7.893-31.044-12.511-0.183 6.408 0.834 13.101-1.363 19.265-3.54 2.095-7.527 3.275-11.331 4.801 0.163 6.123 1.912 12.084 1.994 18.167-4.435 8.503-16.641 9.968-24.86 6.713-13.732-6.957-24.392-18.472-35.337-29.051-3.438 3.804-2.604 9.297-4.638 13.752-1.872 4.353-3.764 8.707-5.249 13.223 2.075 3.926 5.025 7.242 8.626 9.846 0.479 2.727 0.981 5.457 1.461 8.192h9.504l-8.495 6.16c0.592 3.939 1.058 7.892 1.233 11.872-0.061 15.481-8.524 29.173-10.355 44.37-4.252 16.112 0.509 33.669-7.161 49.007-3.621 7.283 2.726 15.075-0.692 22.358-2.36 7.263-5.066 14.383-7.71 21.524-1.45 3.632-2.717 7.325-3.823 11.07l1.521 4.687h35.482l-28.716 20.884 10.939 33.644-28.646-20.816-6.605 4.799c-7.168 16.12-18.01 30.541-23.831 47.287-8.829 8.341-20.791 15.115-24.168 27.647-2.563 6.591 2.889 12.796 2.238 19.408-2.238 4.008-7.039 5.818-10.111 9.175 0.936 6.652 1.343 13.467 3.092 19.998 5.391 12.816 5.411 27.22 3.235 40.768-0.915 5.452-7.609 7.263-9.378 12.349-2.441 7.69-1.424 15.95-3.092 23.781-4.374 6.307-11.637 9.867-16.194 16.031-2.807 5.31-2.909 11.494-4.109 17.272 9.765 10.518 13.244 24.941 15.685 38.653 1.139 7.771-10.518 10.335-9.5 18.147-0.407 8.402 3.092 17.251-0.509 25.287-0.834 2.909-3.703 6.673-0.59 9.236 11.576 12.267 17.292 28.359 24.595 43.251-2.278 4.415-4.394 8.911-6.062 13.589 5.31 4.862 9.399 11.026 15.42 15.136 2.482-4.679 2.075-9.989 2.645-15.054 3.397-3.052 7.812-0.57 11.026 1.404 1.343 8.727 0.427 17.496-2.726 25.755 3.336 1.709 6.632 3.479 9.887 5.35-2.604 3.987-5.35 7.914-8.199 11.738-5.106-3.947-10.009-8.178-14.118-13.162 0.448 11.148-0.285 22.358 0.773 33.465 5.493 6.917 13.406 11.799 20.12 17.557 1.165 3.631 1.101 7.261 0.026 10.653h19.509l10.94-33.712 10.94 33.712h35.483l-28.724 20.89 10.947 33.731-28.646-20.88-27.253 19.864c6.796 15.901 14.698 31.347 24.049 45.874h1104.2v-121.86zm-1083.3-127.83l10.956 33.696-28.646-20.816-28.646 20.816 10.956-33.696-28.733-20.833h35.483l10.94-33.712 10.94 33.712h35.483l-28.733 20.833zm0.017-171.06l10.939 33.708-28.646-20.88-28.646 20.88 10.939-33.708-28.716-20.82h35.462l10.961-33.712 10.961 33.712h35.462l-28.716 20.82zm110.78 290.32l-28.692-20.803-28.692 20.803 10.945-33.725-28.629-20.804h35.37l10.961-33.712 11.025 33.712h35.397l-28.629 20.804 10.944 33.725zm-10.952-204.79l10.952 33.747-28.692-20.867-28.692 20.867 10.952-33.747-28.637-20.873h35.39l10.94-33.712 11.004 33.712h35.42l-28.637 20.873zm8e-3 -171.12l10.944 33.725-28.692-20.803-28.692 20.803 10.945-33.725-28.629-20.804h35.39l10.94-33.712 11.004 33.712h35.419l-28.629 20.804zm0-171.05l10.944 33.724-28.692-20.867-28.692 20.867 10.945-33.724-28.629-20.804h35.37l10.961-33.712 11.025 33.712h35.397l-28.629 20.804zm110.7 632.52l-28.646-20.88-28.646 20.88 10.947-33.731-28.724-20.89h35.483l10.94-33.712 10.94 33.712h35.482l-28.724 20.89 10.948 33.731zm-10.955-204.83l10.956 33.696-28.646-20.816-28.646 20.816 10.956-33.696-28.733-20.833h35.483l10.94-33.712 10.94 33.712h35.482l-28.732 20.833zm0.016-171.06l10.939 33.708-28.646-20.88-28.646 20.88 10.939-33.708-28.716-20.821h35.462l10.961-33.712 10.961 33.712h35.462l-28.716 20.821zm0-171.08l10.939 33.644-28.646-20.816-28.646 20.816 10.939-33.644-28.716-20.884h35.482l10.941-33.712 10.94 33.712h35.482l-28.715 20.884zm0-171.11l10.939 33.708-28.646-20.816-28.646 20.816 10.939-33.708-28.716-20.821h35.483l10.94-33.712 10.94 33.712h35.482l-28.715 20.821zm110.79 632.51l-28.692-20.803-28.692 20.803 10.945-33.725-28.63-20.804h35.37l10.961-33.712 10.961 33.712h35.462l-28.63 20.804 10.945 33.725zm-10.952-204.79l10.952 33.747-28.692-20.867-28.692 20.867 10.952-33.747-28.637-20.873h35.39l10.94-33.712 10.94 33.712h35.483l-28.636 20.873zm7e-3 -171.12l10.945 33.725-28.692-20.803-28.692 20.803 10.944-33.725-28.629-20.804h35.39l10.94-33.712 10.94 33.712h35.483l-28.629 20.804zm0-171.05l10.945 33.724-28.692-20.867-28.692 20.867 10.944-33.724-28.629-20.804h35.37l10.961-33.712 10.961 33.712h35.462l-28.63 20.804zm110.7 632.52l-28.66-20.89-28.724 20.89 11.016-33.747-28.701-20.873h35.482l10.94-33.712 10.94 33.712h35.483l-28.724 20.89 10.948 33.73zm-10.956-204.83l10.956 33.696-28.66-20.826-28.724 20.826 11.025-33.712-28.71-20.816h35.482l10.94-33.712 10.94 33.712h35.483l-28.732 20.832zm0.017-171.06l10.939 33.708-28.66-20.89-28.724 20.89 11.008-33.725-28.693-20.804h35.462l10.961-33.712 10.961 33.712h35.462l-28.716 20.821zm0-171.08l10.939 33.644-28.66-20.826-28.724 20.826 11.008-33.661-28.693-20.868h35.482l10.941-33.712 10.94 33.712h35.483l-28.716 20.885zm110.78 461.4l-28.692-20.803-28.692 20.803 10.945-33.725-28.63-20.804h35.37l10.961-33.712 10.961 33.712h35.462l-28.642 20.767 10.957 33.762zm-10.964-204.83l10.964 33.785-28.692-20.867-28.692 20.867 10.952-33.747-28.637-20.873h35.39l10.94-33.712 10.94 33.712h35.482l-28.647 20.835zm7e-3 -171.12l10.957 33.762-28.692-20.803-28.692 20.803 10.945-33.725-28.63-20.804h35.39l10.94-33.712 10.94 33.712h35.482l-28.64 20.767zm0-171.05l10.957 33.762-28.692-20.867-28.692 20.867 10.945-33.724-28.63-20.804h35.37l10.961-33.712 10.961 33.712h35.462l-28.642 20.766zm110.71 632.56l-28.66-20.89-28.724 20.89 11.016-33.747-28.701-20.873h35.483l10.94-33.712 10.941 33.712h35.482l-28.724 20.89 10.947 33.73zm-10.956-204.83l10.956 33.696-28.66-20.826-28.724 20.826 11.025-33.712-28.71-20.816h35.483l10.94-33.712 10.941 33.712h35.482l-28.733 20.832zm0.017-171.06l10.939 33.708-28.66-20.89-28.724 20.89 11.008-33.724-28.693-20.804h35.462l10.961-33.712 10.961 33.712h35.462l-28.716 20.82zm0-171.08l10.939 33.644-28.66-20.826-28.724 20.826 11.008-33.661-28.693-20.868h35.482l10.94-33.712 10.941 33.712h35.482l-28.715 20.885zm110.79 461.4l-28.724-20.826-28.66 20.826 10.939-33.708-28.716-20.821h35.462l10.961-33.712 10.961 33.712h35.462l-28.693 20.804 11.008 33.725zm-11.016-204.79l11.016 33.747-28.724-20.89-28.66 20.89 10.947-33.731-28.724-20.89h35.483l10.94-33.712 10.94 33.712h35.483l-28.701 20.874zm7e-3 -171.12l11.008 33.725-28.724-20.826-28.66 20.826 10.939-33.708-28.716-20.821h35.483l10.94-33.712 10.94 33.712h35.483l-28.693 20.804zm110.76 461.48l-28.692-20.867-28.692 20.867 10.964-33.785-28.649-20.836h35.483l10.94-33.712 10.94 33.712h35.391l-28.637 20.874 10.952 33.747zm-10.962-204.85l10.961 33.712-28.692-20.803-28.692 20.803 10.973-33.75-28.658-20.779h35.483l10.94-33.712 10.94 33.712h35.391l-28.646 20.817zm0.017-171.06l10.944 33.725-28.692-20.867-28.692 20.867 10.957-33.762-28.642-20.767h35.462l10.961-33.712 10.961 33.712h35.37l-28.629 20.804zm0-171.08l10.944 33.661-28.692-20.803-28.692 20.803 10.957-33.698-28.642-20.83h35.483l10.94-33.712 10.94 33.712h35.39l-28.628 20.867zm110.79 461.42l-28.724-20.826-28.66 20.826 10.939-33.708-28.716-20.821h35.462l10.961-33.712 10.961 33.712h35.462l-28.693 20.804 11.008 33.725zm-11.016-204.79l11.016 33.747-28.724-20.89-28.66 20.89 10.947-33.731-28.724-20.89h35.483l10.94-33.712 10.94 33.712h35.482l-28.7 20.874zm8e-3 -171.12l11.008 33.725-28.724-20.826-28.66 20.826 10.939-33.708-28.716-20.821h35.483l10.94-33.712 10.94 33.712h35.482l-28.692 20.804zm110.76 461.48l-28.692-20.867-28.692 20.867 10.952-33.747-28.637-20.873h35.483l10.94-33.712 10.94 33.712h35.39l-28.637 20.873 10.953 33.747zm-10.961-204.85l10.961 33.712-28.692-20.803-28.692 20.803 10.961-33.712-28.646-20.816h35.483l10.94-33.712 10.94 33.712h35.39l-28.645 20.816zm0.016-171.06l10.945 33.725-28.692-20.867-28.692 20.867 10.944-33.725-28.629-20.804h35.462l10.961-33.712 10.961 33.712h35.37l-28.63 20.804zm0-171.08l10.945 33.661-28.692-20.803-28.692 20.803 10.944-33.661-28.629-20.868h35.482l10.941-33.712 10.941 33.712h35.39l-28.63 20.868z" fill="#3C3A6E"/>
	<path d="m160.84 86.448c0.359 2.05 0.7 4.103 1.009 6.16l8.495-6.16h-9.504z" fill="#fff"/>
	<polygon points="323.52 52.736 312.58 86.448 277.1 86.448 305.82 107.27 294.88 140.98 323.52 120.16 352.17 140.98 341.23 107.27 369.95 86.448 334.46 86.448" fill="#fff"/>
	<path d="m505.39 107.25l-11.008 33.725 28.724-20.826 28.66 20.826-10.939-33.708 14.503-10.515c-3.466-0.716-6.933-1.434-10.4-2.141-12.633-2.339-25.043-6.123-37.941-6.835-1.001-0.527-2.04-0.95-3.094-1.329h-27.197l28.692 20.803z" fill="#fff"/>
	<path d="m711.53 128.26c-4.222-0.732-8.442-1.482-12.659-2.247l-4.886 14.967 17.545-12.72z" fill="#fff"/>
	<path d="m749.2 134.28c-2.957-0.428-5.912-0.871-8.865-1.321l11.04 8.023-2.175-6.702z" fill="#fff"/>
	<polygon points="223.68 138.31 212.72 172.02 177.35 172.02 205.98 192.82 195.03 226.55 223.72 205.68 252.42 226.55 241.47 192.82 270.1 172.02 234.7 172.02" fill="#fff"/>
	<polygon points="423.28 138.31 412.32 172.02 376.95 172.02 405.58 192.82 394.63 226.55 423.32 205.68 452.02 226.55 441.07 192.82 469.7 172.02 434.24 172.02" fill="#fff"/>
	<polygon points="622.88 138.31 611.92 172.02 576.55 172.02 605.18 192.82 594.23 226.55 622.92 205.68 651.62 226.55 640.66 192.78 669.3 172.02 633.84 172.02" fill="#fff"/>
	<path d="m776.06 172.02l28.716 20.821-10.939 33.708 28.66-20.89 28.724 20.89-11.008-33.724 28.693-20.804h-35.462l-9.428-28.996c-0.99-0.099-1.981-0.196-2.971-0.296l-9.524 29.292h-35.461z" fill="#fff"/>
	<path d="m975.66 172.02l28.716 20.821-10.939 33.708 28.66-20.89 28.724 20.89-11.008-33.724 28.693-20.804h-35.462l-4.278-13.158c-0.69-0.051-1.381-0.088-2.071-0.144-3.625-0.414-7.264-0.84-10.908-1.046l-4.665 14.348h-35.462z" fill="#fff"/>
	<path d="m152.57 312.02l-10.939-33.644 28.716-20.884h-35.482l-1.521-4.687c-0.523 1.772-1.022 3.551-1.466 5.348-1.444 1.526-2.462 3.336-3.031 5.411-2.095 6.184-4.293 12.328-6.571 18.452-1.239 4.854-2.954 9.487-4.956 13.988l6.605-4.799 28.645 20.815z" fill="#fff"/>
	<polygon points="323.52 223.78 312.58 257.5 277.1 257.5 305.82 278.38 294.88 312.02 323.52 291.21 352.17 312.02 341.23 278.38 369.95 257.5 334.46 257.5" fill="#fff"/>
	<polygon points="523.12 223.78 512.18 257.5 476.7 257.5 505.39 278.36 494.39 312.02 523.11 291.2 551.77 312.02 540.83 278.38 569.55 257.5 534.06 257.5" fill="#fff"/>
	<polygon points="722.72 223.78 711.78 257.5 676.3 257.5 705 278.36 693.99 312.02 722.71 291.2 751.37 312.02 740.43 278.38 769.15 257.5 733.66 257.5" fill="#fff"/>
	<polygon points="922.32 223.78 911.38 257.5 875.9 257.5 904.54 278.32 893.59 312.02 922.28 291.22 950.97 312.02 940.03 278.36 968.66 257.5 933.26 257.5" fill="#fff"/>
	<polygon points="1121.9 223.78 1111 257.5 1075.5 257.5 1104.1 278.36 1093.2 312.02 1121.9 291.22 1150.6 312.02 1139.6 278.36 1168.3 257.5 1132.9 257.5" fill="#fff"/>
	<polygon points="223.68 309.35 212.74 343.06 177.35 343.06 205.98 363.87 195.03 397.59 223.72 376.79 252.42 397.59 241.47 363.87 270.1 343.06 234.68 343.06" fill="#fff"/>
	<polygon points="423.28 309.35 412.34 343.06 376.95 343.06 405.58 363.87 394.63 397.59 423.32 376.79 452.02 397.59 441.07 363.87 469.7 343.06 434.22 343.06" fill="#fff"/>
	<polygon points="622.88 309.35 611.94 343.06 576.55 343.06 605.18 363.87 594.23 397.59 622.92 376.79 651.62 397.59 640.66 363.83 669.3 343.06 633.82 343.06" fill="#fff"/>
	<polygon points="822.48 309.35 811.54 343.06 776.06 343.06 804.77 363.88 793.83 397.59 822.49 376.77 851.22 397.59 840.21 363.87 868.9 343.06 833.42 343.06" fill="#fff"/>
	<polygon points="1022.1 309.35 1011.1 343.06 975.66 343.06 1004.4 363.88 993.43 397.59 1022.1 376.77 1050.8 397.59 1039.8 363.87 1068.5 343.06 1033 343.06" fill="#fff"/>
	<polygon points="123.92 394.92 112.96 428.63 77.5 428.63 106.22 449.45 95.277 483.16 123.92 462.28 152.57 483.16 141.63 449.45 170.35 428.63 134.88 428.63" fill="#fff"/>
	<polygon points="323.52 394.92 312.56 428.63 277.1 428.63 305.82 449.45 294.88 483.16 323.52 462.28 352.17 483.16 341.23 449.45 369.95 428.63 334.48 428.63" fill="#fff"/>
	<polygon points="523.12 394.92 512.16 428.63 476.7 428.63 505.39 449.44 494.39 483.16 523.11 462.27 551.77 483.16 540.83 449.45 569.55 428.63 534.08 428.63" fill="#fff"/>
	<polygon points="722.72 394.92 711.76 428.63 676.3 428.63 705 449.44 693.99 483.16 722.71 462.27 751.37 483.16 740.43 449.45 769.15 428.63 733.69 428.63" fill="#fff"/>
	<polygon points="922.32 394.92 911.36 428.63 875.9 428.63 904.54 449.4 893.59 483.16 922.28 462.3 950.97 483.16 940.03 449.44 968.66 428.63 933.29 428.63" fill="#fff"/>
	<polygon points="1121.9 394.92 1111 428.63 1075.5 428.63 1104.1 449.44 1093.2 483.16 1121.9 462.3 1150.6 483.16 1139.6 449.44 1168.3 428.63 1132.9 428.63" fill="#fff"/>
	<polygon points="223.68 480.4 212.74 514.11 177.35 514.11 205.98 534.98 195.03 568.73 223.72 547.86 252.42 568.73 241.46 534.98 270.1 514.11 234.68 514.11" fill="#fff"/>
	<polygon points="423.28 480.4 412.34 514.11 376.95 514.11 405.58 534.98 394.63 568.73 423.32 547.86 452.02 568.73 441.06 534.98 469.7 514.11 434.22 514.11" fill="#fff"/>
	<polygon points="622.88 480.4 611.94 514.11 576.55 514.11 605.18 534.98 594.23 568.73 622.92 547.86 651.62 568.73 640.65 534.95 669.3 514.11 633.82 514.11" fill="#fff"/>
	<polygon points="822.48 480.4 811.54 514.11 776.06 514.11 804.78 535 793.83 568.73 822.49 547.84 851.22 568.73 840.2 534.98 868.9 514.11 833.42 514.11" fill="#fff"/>
	<polygon points="1022.1 480.4 1011.1 514.11 975.66 514.11 1004.4 535 993.43 568.73 1022.1 547.84 1050.8 568.73 1039.8 534.98 1068.5 514.11 1033 514.11" fill="#fff"/>
	<polygon points="123.92 565.97 112.98 599.68 77.5 599.68 106.23 620.51 95.277 654.21 123.92 633.39 152.57 654.21 141.61 620.51 170.35 599.68 134.86 599.68" fill="#fff"/>
	<polygon points="323.52 565.97 312.58 599.68 277.1 599.68 305.83 620.51 294.88 654.21 323.52 633.39 352.17 654.21 341.21 620.51 369.95 599.68 334.46 599.68" fill="#fff"/>
	<polygon points="523.12 565.97 512.18 599.68 476.7 599.68 505.41 620.5 494.39 654.21 523.11 633.38 551.77 654.21 540.81 620.51 569.55 599.68 534.06 599.68" fill="#fff"/>
	<polygon points="722.72 565.97 711.78 599.68 676.3 599.68 705.01 620.5 693.99 654.21 722.71 633.38 751.37 654.21 740.41 620.51 769.15 599.68 733.66 599.68" fill="#fff"/>
	<polygon points="922.32 565.97 911.38 599.68 875.9 599.68 904.56 620.46 893.59 654.21 922.28 633.4 950.97 654.21 940.01 620.5 968.66 599.68 933.26 599.68" fill="#fff"/>
	<polygon points="1121.9 565.97 1111 599.68 1075.5 599.68 1104.1 620.5 1093.2 654.21 1121.9 633.4 1150.6 654.21 1139.6 620.5 1168.3 599.68 1132.9 599.68" fill="#fff"/>
	<polygon points="234.7 685.25 223.68 651.54 212.72 685.25 177.35 685.25 205.98 706.05 195.03 739.78 223.72 718.98 252.42 739.78 241.47 706.05 270.1 685.25" fill="#fff"/>
	<path d="m434.24 685.25l-10.961-33.712-10.961 33.712h-35.37l28.63 20.804-10.945 33.725 28.692-20.803 28.692 20.803-10.945-33.725 28.63-20.804h-35.462zm-10.915 15.06z" fill="#fff"/>
	<polygon points="633.84 685.25 622.88 651.54 611.92 685.25 576.55 685.25 605.18 706.05 594.23 739.78 622.92 718.98 651.62 739.78 640.66 706.02 669.3 685.25" fill="#fff"/>
	<path d="m833.44 685.25l-10.961-33.712-10.961 33.712h-35.462l28.716 20.821-10.939 33.708 28.66-20.826 28.724 20.826-11.008-33.724 28.693-20.804h-35.462zm-10.961 15.06z" fill="#fff"/>
	<polygon points="1033 685.25 1022.1 651.54 1011.1 685.25 975.66 685.25 1004.4 706.07 993.43 739.78 1022.1 718.95 1050.8 739.78 1039.8 706.05 1068.5 685.25" fill="#fff"/>
	<path d="m152.57 825.35l-10.947-33.731 28.724-20.89h-35.483l-10.94-33.712-10.94 33.712h-19.509c-0.689 2.176-1.79 4.255-3.261 6.171-0.567 0.594-1.194 1.165-1.853 1.727l17.864 12.992-10.153 31.284c0.201 0.476 0.398 0.954 0.601 1.43l27.251-19.863 28.646 20.88z" fill="#fff"/>
	<polygon points="334.46 770.73 323.52 737.02 312.58 770.73 277.1 770.73 305.82 791.62 294.88 825.35 323.52 804.47 352.17 825.35 341.22 791.62 369.95 770.73" fill="#fff"/>
	<polygon points="534.06 770.73 523.12 737.02 512.18 770.73 476.7 770.73 505.4 791.6 494.39 825.35 523.11 804.46 551.77 825.35 540.82 791.62 569.55 770.73" fill="#fff"/>
	<polygon points="733.66 770.73 722.72 737.02 711.78 770.73 676.3 770.73 705 791.6 693.99 825.35 722.71 804.46 751.37 825.35 740.42 791.62 769.15 770.73" fill="#fff"/>
	<polygon points="933.26 770.73 922.32 737.02 911.38 770.73 875.9 770.73 904.55 791.56 893.59 825.35 922.28 804.48 950.97 825.35 940.02 791.6 968.66 770.73" fill="#fff"/>
	<polygon points="1132.9 770.73 1121.9 737.02 1111 770.73 1075.5 770.73 1104.1 791.6 1093.2 825.35 1121.9 804.48 1150.6 825.35 1139.6 791.6 1168.3 770.73" fill="#fff"/>
	<path d="m1224.9 626.48v121.86h1069.6c-2.536-7.344-10.501-12.933-16.163-17.87-7.812-5.757-9.663-15.705-10.64-24.738 1.526-0.407 4.618-1.221 6.144-1.648-3.723-17.109-7.365-35.744-0.59-52.629 2.604-7.588 10.131-11.576 16.804-15.014 1.282 12.918-9.379 24.128-5.208 37.066 0.427 4.333 5.737 3.113 8.829 4.008 0.366 10.253-1.75 20.71 0.488 30.82 3.926 3.113 6.795-2.848 10.355-2.4 4.231 9.663 9.134 19.021 15.705 27.321 3.673 4.263 3.415 9.738 3.006 15.083h9.02c1.41-9.08 2.039-18.255 2.5-27.432 0.305-9.378 8.911-15.644 10.457-24.575-0.855-4.089-2.645-7.873-4.252-11.657-3.58-1.058-7.527-1.912-9.439-5.452-9.46-13.793-19.266-27.423-27.077-42.254 3.621-2.238 7.466-4.923 12.023-4.313 2.95 4.211 2.929 9.785 4.13 14.688 6.205 3.133 12.613 5.9 19.042 8.585 0.284 1.77 0.834 5.33 1.118 7.1 2.828-1.607 6.246-2.624 8.382-5.269 2.543-6.978 0.976-14.993 4.72-21.625 1.707-3.294 3.623-6.467 5.514-9.657h-1134.4z" fill="#fff"/>
	<path d="m2442 163.33c-1.078 7.405-5.086 13.956-6.835 21.178-0.957 4.496 4.658 5.798 7.323 8.158-2.034 7.771-5.757 14.891-9.988 21.666-2.523 3.397-1.587 7.629-1.383 11.535-6.917 8.239-10.335 19.205-19.428 25.572-2.633 2.443-4.168 6.205-6.136 9.461h118.32c2.367-2.607 5.834-4.226 8.615-6.367-0.206 2.127-0.406 4.247-0.595 6.367h13.817c0.248-0.663 0.499-1.323 0.734-1.994 3.092-0.122 6.246 0.041 9.378-0.407 2.258-2.217 4.069-4.801 6.144-7.222h0.265c8.585-13.406 20.852-23.72 32.733-34.076-4.395-4.029-8.463-8.402-12.898-12.349-3.723-3.743-10.721-1.933-13.448-6.835-2.319-3.377 0.529-7.425 0.916-10.965-6.063-1.424-12.043-3.112-17.882-5.228 0.244-9.989-8.402-16.926-10.07-26.426-1.128-5.482-2.358-10.938-3.731-16.358h-94.49c-0.152 8.116-0.201 16.238-1.363 24.29z" fill="#fff"/>
	<path d="m1674.7 251.06c6.428-2.828 10.07-9.684 11.169-16.397-8.382 3.743-15.644 9.541-21.422 16.641h-1.2c-4.317 3.103-8.534 6.332-12.717 9.604h15.758c3.004-3.084 5.496-6.671 8.412-9.848z" fill="#fff"/>
	<path d="m1533.9 260.9c3.763-3.609 7.785-6.949 12.099-9.929 15.787-8.87 29.803-20.812 46.465-28.197 3.784-1.403 6.103-4.781 8.422-7.913-3.479-1.078-6.937-2.116-10.396-3.153-0.427-1.221-1.282-3.642-1.709-4.862-9.765-1.098-19.367 0.956-28.969 2.38-2.828-2.624-5.676-5.188-8.565-7.731-3.214 5.574-5.676 11.82-10.355 16.356-3.682 3.56-9.5 2.482-13.61 0.346-6.612-3.357-10.294-10.131-15.848-14.708-9.562-4.984-19.388 5.778-28.583 0.041-9.216-3.784-12.918-15.197-23.008-17.475-3.988-1.607-7.466 1.302-10.945 2.726-6.408 3.927-13.589-0.448-19.978-2.116-10.945-4.292-23.517-1.241-34.014-6.957-4.028-2.095-8.707-5.086-8.402-10.274-1.017-9.073-0.427-20.852-10.131-25.45-0.793 6.978 3.092 20.669-8.036 20.262-42.01-0.04-84.06-0.712-126.09-0.977-5.77-0.061-11.539-0.116-17.308-0.167v97.797h308.96z" fill="#fff"/>
	<path d="m120.72 870.2c0.871 1.354 1.754 2.7 2.651 4.037 5.025 12.328-5.798 23.456-4.191 35.825 1.221 7.954 7.344 14.891 15.034 17.251 11.84 3.784 23.863 7.812 34.177 14.953 5.188 3.56 4.984 10.701 6.693 16.153 9.338 4.903 19.326 8.504 29.783 10.07 9.867 0.712 12.471 12.633 10.355 20.649 1.019 0.951 2.047 1.894 3.084 2.83h2049.4c-2.044-3.863-5.193-7.163-7.58-10.784 4.537-3.275 9.5-6.368 12.552-11.23 6.001-8.809 9.073-20.323 19.225-25.552 9.297-8.178 21.829-1.831 32.712-3.886 4.496-0.773 10.315-2.97 11.128-8.097-0.977-4.883-3.154-9.521-6.103-13.488-2.441-0.203-4.862-0.102-7.243-0.041-1.383-5.025-2.604-10.09-3.763-15.136-5.229-0.203-10.416-0.57-15.522-1.505 3.072-5.839 9.094-9.216 15.258-10.904 5.798 1.994 10.864 5.615 16.478 8.076 4.821-8.402 8.667-17.414 14.525-25.206 0.397-1.322 0.794-2.664 1.17-4.017h-2229.8z" fill="#fff"/>
	<path d="m1954.7 502.62h0.631c1.485-6.51 5.391-13.915 1.282-20.242-3.173-6.347-10.314-8.707-15.97-12.206 0.386-4.984 0.183-10.009-1.709-14.688-2.848-7.527-3.397-15.604-5.31-23.334-0.651-2.685-2.36-6.307-5.696-5.493-5.737 0.692-11.759 1.79-16.58 5.066-6.591 5.391-5.757 14.485-8.605 21.727-8.137 3.906-19.184 0.468-24.595-6.469-3.377-8.89 2.136-18.655 10.884-21.748 1.343-5.391 1.913-11.006 3.641-16.295 2.258-4.272 6.246-7.547 7.751-12.227 0.92-4.586 0.957-9.277 0.86-13.953h-116.44c-5.009 5.952-7.953 13.651-15.228 17.432 2.157 9.684 3.316 19.835 1.505 29.681-1.302 4.842-7.73 9.155-4.252 14.363 4.435 7.12 2.767 16.417-3.397 21.951 2.624 2.767 5.656 5.33 7.324 8.87 4.15 10.212 12.369 17.923 17.658 27.505 1e-3 0.686 7e-3 1.373 0.01 2.059h165.65c0.202-0.674 0.395-1.346 0.59-1.999z" fill="#fff"/>
	<path d="m2230.5 391.96c-0.244 4.17-3.763 7.242-5.879 10.619-4.883 0.956-10.559 0.753-14.342 4.435-3.438 3.682-4.984 8.626-7.833 12.694-8.076 4.415-17.74 2.34-26.304 4.842-4.476 0.977-8.91 3.662-13.549 2.217-7.507-1.729-15.482-2.929-22.948-0.346-13.65 4.943-27.729 8.687-40.993 14.647 3.927 9.012 13.57 14.037 16.906 23.334 0.102 5.066 0.285 11.23-3.988 14.81-8.544 8.036-18.268 14.79-26.304 23.395-0.53 0.692-1.096 1.35-1.65 2.018h315.41c0.817-0.315 1.632-0.637 2.44-0.981l1.281 0.244-0.834-1.261c7.08-4.821 13.305-11.006 21.015-14.871 7.629-3.804 17.312 3.764 24.107-2.502 4.659-4.048 10.6-5.838 16.092-8.442 4.272-5.29 6.713-11.799 10.354-17.516 3.418 0.02 6.856 0.041 10.315 0.02 4.557-6.754 12.878-7.405 19.631-10.762-9.582-14.729-21.849-27.444-32.509-41.338 0.346-6.225 2.198-12.43 1.119-18.676-0.293-2.038-0.93-3.947-1.761-5.776h-249.2c3.068 3.122 6.606 5.803 9.417 9.196z" fill="#fff"/>
	<path d="m1224.9 382.76v121.86h481.14c0.017-0.662 0.08-1.339 0.207-2.039-0.59-9.46-1.017-19.367 3.906-27.891 6.51-9.846-3.356-21.157 1.2-31.451 2.665-3.459 6.225-6.083 8.992-9.439 1.465-6.408-4.76-12.247-2.746-18.676 3.171-10.734 7.401-21.204 8.887-32.364h-0.819c-1.796 2.058-3.486 4.186-4.833 6.569-4.476 8.259-11.637 14.831-19.448 19.896-2.889 2.095-6.53 1.098-9.765 1.078 0.285-3.621-0.427-7.832 2.359-10.68 4.226-5.351 9.102-10.691 12.033-16.862h-481.11z" fill="#fff"/>
	<path d="m1537.1 1358.1c1.614-0.129 3.223-0.306 4.831-0.5h-10.082c1.737 0.243 3.486 0.42 5.251 0.5z" fill="#fff"/>
	<path d="m937.54 1376.2c5.432 5.981 11.209 12.878 19.733 14.078 9.277 2.706 13.691-8.382 19.286-13.712 2.503-6.609 6.201-12.662 9.272-19.013h-77.251c8.299 7.879 18.958 13.281 28.96 18.647z" fill="#fff"/>
	<path d="m1070.6 1364.4c2.624 4.15 5.696 8.036 8.503 12.125 7.425 8.87 20.75 13.305 23.314 25.592 1.505 5.717 5.696 10.05 9.236 14.607 5.737 7.181 8.503 16.092 12.552 24.229 6.654 14.233 18.26 25.199 26.519 38.419h138.73c2.938-1.433 5.737-3.013 7.304-6.012 5.33-9.806 10.355-20.445 19.103-27.708 3.499-0.102 7.019 0.468 10.559 0.183 4.13-1.322 6.184-5.473 8.667-8.687-5.819-2.523-14.77-5.656-11.718-13.834 7.649-0.651 15.685-1.872 22.825 1.79 6.083-1.424 12.511-2.929 17.211-7.324 8.26-7.446 16.6-14.851 25.816-21.117 9.216-6.815 20.384-11.189 27.749-20.323 0.793-1.851 1.587-3.702 2.339-5.533-3.417-0.285-6.896-0.203-10.233-0.895-2.95-2.706-3.702-6.795-4.882-10.396 2.838-0.637 5.669-1.303 8.491-2.005h-345.14c0.817 2.384 1.711 4.735 3.057 6.889z" fill="#fff"/>
	<path d="m1429.4 1369.9c13.258-2.302 25.741-7.67 38.408-12.299h-44.386c-0.732 4.861 1.402 10.036 5.978 12.299z" fill="#fff"/>
	<path d="m1600.3 1358.9c1.224-0.33 3.398-0.924 5.068-1.375h-7.595c0.819 0.492 1.654 0.96 2.527 1.375z" fill="#fff"/>
	<path d="m2079.2 1376.5c-0.733 12.755-3.662 25.226-5.229 37.88 4.618 0.895 9.256 1.729 13.895 2.604-1.302-2.807-2.726-5.574-3.459-8.544 1.913-5.066 6.978-6.51 11.962-6.062 1.933 5.147 5.065 10.355 4.374 16.092-2.95 6.164-13.833 8.056-11.759 16.336 4.537 7.324 12.146 12.39 15.726 20.405 2.624 4.557 3.601 10.965 9.175 13.02 6.173 2.762 11.79 6.576 16.69 11.159h108.25c0.132-8.734-0.208-17.506 7e-3 -26.193 0.936-12.064-10.111-19.265-16.499-27.871-12.267-15.929-24.147-32.245-34.666-49.374l-0.59 0.041c-3.45-6.068-8.134-11.631-9.954-18.464h-98.631c1.174 6.146 0.618 12.862 0.704 18.971z" fill="#fff"/>
	<path d="m1689.5 1367.4c13.63 4.374 27.016 12.186 41.847 8.727-0.59-1.221-1.77-3.703-2.36-4.923-8.401-5.977-17.975-9.898-27.523-13.683h-26.446c4.474 3.835 8.892 7.795 14.482 9.879z" fill="#fff"/>
	<path d="m1619.1 1376.6c7.059 5.269 19.449 8.585 25.165-0.081 2.116-2.726 4.231-5.493 6.937-7.669 2.523 0.142 5.005 0.59 7.486 1.343 0.773 2.116 1.546 4.252 2.36 6.429 5.025 0.122 10.07 0.142 15.115 0.163 1.037-2.462 2.095-4.903 3.153-7.324-3.886-2.868-8.158-5.188-11.799-8.341-0.886-0.81-1.276-2.188-1.249-3.552h-59.264c5.218 5.484 9.925 11.643 12.096 19.032z" fill="#fff"/>
	<path d="m400.76 1114.6c8.259 4.943 15.929 11.311 24.921 14.79 12.552 10.843 27.627 18.024 41.806 26.406 30.21 16.743 60.319 33.648 91.038 49.435 8.056 5.065 17.678 1.79 26.508 3.153 27.85 3.336 55.701 6.53 83.531 10.05 13.122 1.444 25.328 7.71 38.673 7.466-0.427-6.062-1.75-12.165-1.099-18.248 1.811-4.354 6.754-6.042 11.087-6.591 26.406-4.069 52.975 2.34 79.442-0.265 6.591 3.662 8.687 11.921 13.386 17.516 4.789 5.839 9.637 11.665 14.634 17.36h1293.4c-1.788-6.261-3.386-12.558-4.07-19.048 1.017-7.446 4.313-14.403 5.106-21.89 2.055-16.967 6.327-34.34 16.6-48.316 3.764-4.862 4.293-11.148 4.984-17.007 1.709-5.371 5.005-10.151 10.131-12.735 1.424-0.839 2.703-1.804 3.875-2.865h-1755.3c0.441 0.267 0.873 0.545 1.333 0.789z" fill="#fff"/>
	<path d="m2523.8 100.29c-3.702-4.455-6.123-9.826-9.907-14.18-4.923-2.563-10.518-3.316-15.807-4.598-4.17 4.943-7.731 11.087-14.057 13.569-6.348 2.767-12.898 4.984-19.388 7.365 1.648-3.377 3.255-6.795 4.618-10.314-4.435-0.285-8.87-0.305-13.264-0.224 0.346 4.354 3.885 9.948-0.611 13.223-6.205 5.574-11.046 12.573-11.453 21.178-0.308 4.236-0.413 8.484-0.491 12.734h94.49c-1.078-4.255-2.243-8.488-3.531-12.693-3.58-8.686-3.641-19.082-10.599-26.06z" fill="#B22134"/>
	<path d="m1726.6 381.66c-0.327 0.364-0.645 0.733-0.965 1.101h0.819c0.048-0.367 0.103-0.732 0.146-1.101z" fill="#B22134"/>
	<path d="m2531.6 265.2c4.191 0.02 8.443 0.224 12.674-0.448 0.524-1.276 1.021-2.557 1.504-3.845h-13.817c-0.128 1.43-0.254 2.86-0.361 4.293z" fill="#B22134"/>
	<path d="m2397.7 267.19c-10.558 1.485-20.873 4.17-31.004 7.364-11.535 3.662-24.086 1.384-35.418 5.778-9.623 3.418-20.018 4.496-29.031 9.501-12.166 6.51-26.955 2.93-39.121 9.399-6.652 2.523-9.643 9.46-13.691 14.749-8.687 11.799-16.722 24.026-24.331 36.537-3.398 6.734-11.86 6.53-17.943 9.277 0.204 1.709 0.59 5.127 0.793 6.835 5.269-0.203 10.539-0.488 15.848-0.692-0.386 1.505-1.2 4.516-1.587 6.022h-1.038c-0.752 2.828-2.522 5.615-2.095 8.646 0.623 0.753 1.292 1.463 1.976 2.159h249.2c-1.706-3.756-4.242-7.173-6.376-10.662 2.258-17.74 14.831-32.428 16.031-50.432 0.264-4.476 4.374-7.08 7.12-10.111 4.211 0.285 9.276 2.136 12.796-1.323 5.981-5.147 10.253-11.942 15.786-17.536 1.445-0.02 4.333-0.041 5.757-0.061 3.214-9.48 0.061-19.652 0.875-29.356 0.445-0.889 1.013-1.669 1.659-2.38h-118.32c-1.832 3.035-4.041 5.629-7.879 6.286z" fill="#B22134"/>
	<path d="m1901.2 377.27c-3.845-1.79-7.425-4.069-10.233-7.262-0.692-6.123 3.295-10.497 7.446-14.302-7.771-1.322-11.087-10.945-19.408-9.907-6.551 0.163-13.122 0.183-19.469-1.526-1.343-5.045-2.909-10.009-4.74-14.891-4.048 0.468-8.056 0.854-12.064 1.241-0.773 0.671-2.278 2.034-3.051 2.706-2.584-3.764-5.35-7.405-9.074-10.07-1.424 3.092-2.502 6.327-4.251 9.236-4.069 2.909-8.911 4.374-13.407 6.408 2.259 1.994 4.537 4.008 6.836 6.042-0.244 4.455-0.509 8.931-0.814 13.386-4.292 0.163-8.585 0.285-12.837 0.407 0.488 4.394 0.814 8.829 1.058 13.264-0.59 3.255-1.18 6.53-1.75 9.785-7.1-1.506-6.042-10.131-11.189-13.325-2.279 4.109-3.825 8.748-7.303 12.084-0.734 0.701-1.414 1.447-2.064 2.22h116.44c-0.038-1.837-0.094-3.672-0.128-5.496z" fill="#B22134"/>
	<path d="m1224.9 260.9v121.86h481.11c1.571-3.306 2.592-6.847 2.635-10.764h0.488c4.842-12.776 6.428-29.03 19.367-36.598 2.238 1.159 4.577 2.116 6.998 2.909 2.624-3.58 4.679-8.402 9.602-9.236 3.397 3.072 4.415 7.853 6.347 11.901 1.282-4.008 2.258-8.158 4.272-11.881 3.214-4.76 8.463-7.507 13.305-10.355 6.347 2.584 13.142 1.017 19.734 0.488-0.651-0.835-1.953-2.503-2.604-3.337 2.055-4.435 5.005-8.381 8.687-11.616 5.371 1.628 12.023 1.648 15.787 6.489 4.028 4.944 8.279 9.724 13.345 13.691 2.706-4.577 4.232-9.663 6.307-14.525 0.976-3.275 5.289-1.526 7.771-1.668 13.833 1.994 27.85 1.933 41.806 2.238-0.366-2.848-0.712-5.676-1.017-8.504-7.548 0.142-15.217-0.203-22.479-2.197-3.845-1.973-6.978-4.984-10.253-7.71 1.099-4.923 1.241-9.988 1.058-14.993-3.133 3.214-6.144 6.551-9.155 9.846-8.382 0.448-16.783 0.366-25.125-0.122-1.77-1.77-3.519-3.54-5.228-5.289 0.753-1.058 2.258-3.153 3.011-4.211-0.366-1.404-1.078-4.252-1.424-5.676-3.275-0.651-6.53-1.424-9.825-1.648-3.438 1.485-6.083 4.211-8.972 6.449-7.832 7.405-20.059-0.305-28.521 5.818-8.829 5.615-17.129 12.512-22.643 21.524-3.641-2.991-7.243-6.042-10.843-9.053-6.53 0.203-13.101 0.875-19.591 0.02-7.669-4.15-10.131-14.871-19.082-17.251-10.05-3.56-18.35 7.954-28.461 3.946-1.546-2.482-2.38-5.31-3.377-7.995-3.744-1.648-8.911-2.441-8.911-7.527 4.821-2.746 10.314-2.97 15.705-3.479 0.552-0.495 1.079-1.015 1.596-1.545h-15.758c-10.545 8.246-20.853 16.784-31.835 24.431-4.414 3.337-10.355 2.95-15.054 5.594-3.235 2.726-5.005 6.876-8.463 9.338-7.792 1.465-15.746 2.157-23.639 3.011-4.679 0.509-8.443-2.523-11.982-5.045 2.421-10.986 17.333-12.104 18.797-23.619-5.268 3.601-9.805 8.137-14.932 11.962-2.441-1.302-4.862-2.584-7.283-3.845-8.158 7.283-18.899 10.192-28.99 13.691-8.28 2.665-16.906 5.432-25.714 4.069 4.17-5.961 10.009-10.559 13.813-16.804 5.353-8.235 11.501-15.995 18.579-22.784h-308.96z" fill="#B22134"/>
	<path d="m2060.2 525.9c-13.488 11.128-30.943 17.007-42.335 30.719-7.039 6.937-13.732 17.353-24.962 16.499-6.103-0.61-12.41 0.509-17.475 4.089-3.153 5.411-6.388 11.047-12.511 13.508-7.792-5.533-16.987-8.788-24.27-15.095-5.229-4.781-12.633-2.462-18.94-2.624 0.183-4.74 0.102-9.541 1.119-14.2 1.851-4.516 5.899-7.914 7.141-12.694 0-4.801-1.485-9.724 0.163-14.403 3.988-8.524 11.433-14.953 19.977-18.696 3.661-1.396 4.984-4.917 6.022-8.377h-165.65c0.057 11.709 0.381 23.463-0.926 35.109-3.825 19.794-13.895 38.877-29.335 51.856-10.335 0.081-21.971 2.584-31.044-3.804-2.034-5.066-2.095-10.701-4.313-15.685-2.706-4.862-6.673-9.195-7.466-14.912-1.424-9.765 0.346-19.632 0-29.417-0.851-8.683-9.612-14.377-9.382-23.147h-481.14v121.86h1134.4c0.678-1.144 1.353-2.29 2.013-3.444l1.281-0.041c2.787-5.025 6.347-10.05 6.327-16.031 0.57-12.023 4.903-24.717 0.163-36.354-5.046-4.374-13.041-3.947-17.496-8.91-2.177-6.652 3.52-12.511 7.283-17.353 6.184 4.801 13.915 6.429 21.543 7.385-1.22-2.523-2.38-5.045-3.52-7.568 5.29-0.305 11.372 0.488 15.726-3.275 14.342-14.057 36.049-14.546 52.364-25.369-2.705-2.299-5.411-4.557-8.036-6.876-3.784-4.598-10.395-2.97-15.542-2.726-0.488 5.065 0.346 11.433-5.412 13.712-15.115 11.901-34.177 19.632-53.646 17.231 0.386-3.641 0.021-7.507 1.648-10.904 3.479-2.543 8.381-1.709 12.206-3.743 4.78-3.296 6.998-9.033 11.311-12.776 3.63-2.033 7.577-3.32 11.455-4.817h-315.41c-6.749 8.133-15.214 14.619-23.373 21.273z" fill="#B22134"/>
	<path d="m2322.9 753.79c-4.15 2.604-7.873 6.713-8.951 11.616-1.017 4.415 2.522 7.954 4.455 11.555 2.136-2.889 4.293-5.798 6.348-8.768-0.936-2.156-1.668-4.333-2.197-6.571 2.543-3.052 5.818-5.391 8.788-8.036 0.335-1.742 0.626-3.49 0.898-5.24h-9.02c-0.142 1.849-0.3 3.682-0.321 5.444z" fill="#B22134"/>
	<path d="m1224.9 748.34v121.86h-1104.2 2229.8c1.932-6.962 3.244-14.277 0.519-21.209-3.133-7.385-7.731-14.851-15.36-18.167-1.322-10.07-0.63-20.262-1.912-30.312-2.99 0.732-5.493 2.645-7.995 4.252-5.391-3.642-8.3-9.562-11.616-14.912-5.819-1.607-13.793-1.77-16.458-8.219-0.407-4.862 0.041-9.704-0.041-14.546-4.069-0.977-8.036-2.177-11.901-3.601 3.113-1.973 7.955-2.685 9.074-6.815 0.755-3.021 0.525-5.782-0.356-8.332h-1069.6z" fill="#B22134"/>
	<path d="m239.98 1008.6c9.724 10.457 19.428 22.683 19.876 37.656 1.343 9.256-3.56 19.571 2.462 27.83 2.767 6.001 10.172 5.9 15.766 6.652 30.8 2.767 61.723 4.313 92.482 7.771 12.306 4.989 17.781 18.575 28.857 25.291h1755.3c8.122-7.354 10.989-19.351 19.541-26.41 12.694-8.443 25.653-16.621 37.534-26.243-1.485-4.476-2.869-8.972-4.659-13.325 8.565-13.386 17.862-26.304 26.731-39.487 9.277-3.906 19.469-3.723 29.295-5.147 1.994-2.685 4.109-5.289 5.798-8.199-0.345-1.063-0.794-2.073-1.31-3.05h-2049.4c6.767 6.114 13.93 11.862 21.674 16.661z" fill="#B22134"/>
	<path d="m844.05 1255.8c10.05 10.823 21.463 20.385 31.187 31.512 4.882 7.344 9.195 15.075 13.651 22.683 6.795 11.982 4.638 26.955 12.206 38.592 2.149 3.327 4.689 6.274 7.496 8.939h77.251c0.672-1.391 1.325-2.791 1.917-4.22 2.177-6.774 10.233-6.957 15.908-8.809 8.097-2.645 16.499 0.142 24.738 0.386 11.819 1.322 24.514-1.2 35.682 3.743 1.512 2.808 2.419 5.88 3.453 8.899h345.14c3.934-0.979 7.847-2.04 11.709-3.284-0.482 1.051-0.804 2.159-0.974 3.284h44.386c4.126-1.508 8.272-2.939 12.471-4.159 8.137-1.058 16.153-3.133 24.331-4.008 8.808 3.365 17.805 6.851 27.197 8.167h10.082c6.743-0.815 13.448-2.073 20.232-2.796-2.665-1.445-5.371-2.95-7.954-4.435 9.155-4.394 20.16-2.177 30.068-2.848 4.681 3.08 8.7 7.164 13.544 10.079h7.595c0.495-0.134 0.952-0.257 1.32-0.354 0.113 0.117 0.223 0.237 0.335 0.354h59.264c0.052-2.611 1.663-5.166 4.443-3.548 1.47 1.127 2.895 2.332 4.315 3.548h26.446c-2.313-0.917-4.625-1.827-6.918-2.755-3.947-1.322-4.536-6.205-2.543-9.338 3.377-9.887 19.143-7.059 20.486-18.37-4.557-1.261-9.236-1.953-13.895-2.38-0.386 1.628-1.14 4.882-1.526 6.51-2.604 0.488-5.228 0.936-7.792 1.424-1.139-7.202-8.097-9.155-13.956-11.352-3.927 3.357-7.975 8.809-13.875 7.202-7.934-1.485-12.328-13.447-5.371-18.655 4.638-2.868 9.276-9.012 15.319-6.551 10.701 1.465 18.391 12.633 29.966 9.277 7.914-11.352 23.192-12.796 35.357-17.028 11.23 2.299 22.805 1.363 33.77-1.953 3.825-4.842 5.595-11.311 11.189-14.79 3.011 6.856 4.659 14.403 8.931 20.649 2.584 1.668 6.795 1.526 8.626-1.261 3.397-4.435 6.164-9.318 9.521-13.773 2.523 2.502 4.944 5.086 7.446 7.669 5.066-3.316 5.818-9.806 9.785-13.915 7.609-2.116 10.68 5.818 12.878 11.413 3.621 2.258 5.737-2.95 8.605-4.333 9.48-5.432 21.28-7.08 31.634-3.052 2.197 3.031 3.723 6.51 5.94 9.582 7.792 0.854 14.302-4.577 21.056-7.629 4.862 0.57 1.953 7.059 2.929 10.416 3.723 5.147 8.443 9.399 13.671 13.061 4.781 2.726 1.526 13.305 9.297 11.372 7.283 0.57 11.169-7.303 18.045-8.036 4.15-0.956 9.094-1.322 11.86-5.086 5.086-6.53 8.829-13.977 13.183-20.995 1.343-1.892 2.746-4.984 5.655-4.313 11.108 1.037 24.718 2.584 31.167 13 7.873 14.322 22.419 22.765 34.869 32.631 8.463 7.059 19.632 10.843 26.223 20.099 3.09 3.253 4.652 7.129 5.441 11.259h98.631c-4e-3 -0.017-0.01-0.033-0.014-0.049-0.59-2.645-0.631-8.036 3.174-7.954 3.987 1.18 7.71 3.092 11.677 4.476-7.1-9.785-13.488-20.405-23.111-27.952-11.108-9.521-19.184-21.849-27.057-34.014-6.897-11.494-15.156-22.602-18.065-35.927-1.471-6.901-3.634-13.649-5.573-20.439h-1293.4c6.147 7.006 12.526 13.807 19.36 20.135z" fill="#B22134"/>
	<path d="m2146.5 1502.8h0.265c6.653 16.336 28.379 14.546 38.592 27.403-0.651 1.546-1.933 4.638-2.583 6.184 4.394 6.836 8.341 14.119 13.895 20.14 6.164 1.567 13.04 0.895 19.164-0.631 5.37-4.089 10.396-8.666 15.502-13.081 0.325-3.479 0.63-6.957 1.647-10.294 4.232-9.663-2.299-20.466 3.601-29.824 1.635-7.686 2.133-15.49 2.252-23.324h-108.25c6.936 6.489 12.426 14.532 15.919 23.427z" fill="#B22134"/>
	<path d="m1153 1483.4c3.927 6.917 6.652 14.444 8.727 22.114l0.753-1.16c2.502 7.812 5.554 15.563 10.07 22.5 6.53 10.029 9.683 21.707 14.424 32.59 6.042 8.931 17.272 10.579 26.935 13.02 5.167 0.692 4.862 7.73 9.439 9.256 12.41 3.906 25.755 1.689 38.307 4.964 6.428 1.627 10.233 8.097 16.723 9.663 2.421 0.692 5.92 1.404 7.303-1.444 2.177-5.533 0.59-11.677-0.122-17.333-1.282-8.585-9.134-14.139-11.209-22.378 0.753-7.466 2.014-14.932 1.241-22.439 0.122-10.131-7.324-20.466-0.549-29.865 3.946-5.94 5.086-13.04 7.568-19.591 1.977-1.623 4.43-2.682 6.794-3.834h-138.73c0.806 1.292 1.592 2.598 2.327 3.937z" fill="#B22134"/>
</svg>
