<svg xmlns="http://www.w3.org/2000/svg" x="0px" y="0px"
viewBox="0 0 172 172"
style=" fill:#000000;"><g fill="none" fill-rule="nonzero" stroke="none" stroke-width="1" stroke-linecap="butt" stroke-linejoin="miter" stroke-miterlimit="10" stroke-dasharray="" stroke-dashoffset="0" font-family="none" font-weight="none" font-size="none" text-anchor="none" style="mix-blend-mode: normal"><path d="M0,172v-172h172v172z" fill="none"></path><g fill="#ffffff"><path d="M26.56706,16.43294l-10.13411,10.13411l28.66667,28.66667l-9.26628,9.26628h-28.66667v43h28.66667l43,43v-61.53256l66.59961,66.59961l10.13411,-10.13411zM78.83333,21.5l-13.47949,13.47949l13.47949,13.47949zM139.63802,25.19531l-10.13412,10.13411c13.53784,13.53067 20.9961,31.52841 20.9961,50.67057c0,9.89717 -2.02458,19.46657 -5.82292,28.28874l10.75,10.764c6.11317,-11.94683 9.40625,-25.24257 9.40625,-39.05274c0,-22.96917 -8.94848,-44.56502 -25.19531,-60.80469zM119.36979,45.46354l-10.13411,10.13411c9.64633,9.64633 13.56258,22.75125 12.10775,35.35742l12.16373,12.17774c6.13467,-19.70833 1.44297,-42.08894 -14.13737,-57.66927z"></path></g></g></svg>