<svg width="100%" height="100%" viewBox="0 0 591 591" version="1.1" xmlns="http://www.w3.org/2000/svg" xmlns:xlink="http://www.w3.org/1999/xlink" xml:space="preserve" xmlns:serif="http://www.serif.com/" style="fill-rule:evenodd;clip-rule:evenodd;stroke-linecap:round;stroke-linejoin:round;stroke-miterlimit:1.5;">
    <g transform="matrix(0.939454,0,0,0.914295,17.1996,12.4326)">
        <rect x="-18.308" y="-13.598" width="628.611" height="645.909" style="fill:white;stroke:white;stroke-width:3.37px;"/>
    </g>
    <g transform="matrix(0.595801,0,0,1.24199,-39.4946,-86.5763)">
        <path d="M248.927,125.992L321.906,125.992L321.906,355.567C321.906,385.584 319.267,408.673 313.99,424.836C306.898,445.946 294.034,462.892 275.397,475.674C256.761,488.456 232.187,494.847 201.676,494.847C165.887,494.847 138.345,484.827 119.048,464.789C99.752,444.751 90.022,415.353 89.857,376.595L158.878,368.679C159.702,389.459 162.753,404.138 168.031,412.714C175.947,425.743 187.987,432.258 204.15,432.258C220.477,432.258 232.022,427.598 238.784,418.28C245.546,408.962 248.927,389.624 248.927,360.268L248.927,125.992Z" style="fill:rgb(23,147,160);fill-rule:nonzero;"/>
        <path d="M381.279,370.658L452.527,363.731C456.815,387.645 465.514,405.21 478.626,416.425C491.737,427.64 509.426,433.247 531.69,433.247C555.275,433.247 573.045,428.258 585.002,418.28C596.96,408.302 602.938,396.634 602.938,383.275C602.938,374.699 600.423,367.401 595.393,361.381C590.363,355.361 581.58,350.125 569.046,345.672C560.47,342.703 540.926,337.426 510.415,329.839C471.163,320.109 443.621,308.152 427.788,293.968C405.523,274.012 394.39,249.686 394.39,220.989C394.39,202.517 399.627,185.241 410.1,169.161C420.572,153.081 435.663,140.835 455.371,132.424C475.08,124.013 498.87,119.807 526.743,119.807C572.262,119.807 606.525,129.785 629.532,149.741C652.539,169.697 664.62,196.332 665.774,229.647L592.548,232.863C589.414,214.227 582.694,200.827 572.386,192.663C562.078,184.499 546.616,180.417 526.001,180.417C504.725,180.417 488.068,184.788 476.028,193.529C468.277,199.136 464.401,206.64 464.401,216.041C464.401,224.617 468.029,231.956 475.286,238.058C484.522,245.81 506.952,253.891 542.576,262.302C578.199,270.714 604.546,279.413 621.616,288.402C638.686,297.39 652.044,309.677 661.693,325.262C671.341,340.848 676.165,360.103 676.165,383.027C676.165,403.808 670.392,423.269 658.848,441.411C647.303,459.553 630.975,473.035 609.865,481.859C588.754,490.682 562.449,495.094 530.948,495.094C485.099,495.094 449.888,484.497 425.314,463.305C400.74,442.112 386.062,411.23 381.279,370.658Z" style="fill:rgb(23,147,160);fill-rule:nonzero;"/>
    </g>
    <g transform="matrix(1.32542,0,0,1.42329,-312.443,-204.579)">
        <g transform="matrix(0.734511,0,0,0.694607,242.975,140.428)">
            <rect x="283.403" y="318.501" width="127.034" height="209.827" style="fill:white;stroke:white;stroke-width:3.19px;"/>
        </g>
        <path d="M420.026,465.883L452.257,461.973C453.284,470.188 456.049,476.469 460.551,480.813C465.054,485.158 470.505,487.331 476.904,487.331C483.776,487.331 489.563,484.724 494.263,479.51C498.963,474.296 501.313,467.265 501.313,458.418C501.313,450.044 499.062,443.409 494.559,438.511C490.056,433.613 484.566,431.164 478.089,431.164C473.823,431.164 468.727,431.994 462.803,433.653L466.476,406.517C475.482,406.754 482.354,404.799 487.094,400.652C491.834,396.505 494.204,390.995 494.204,384.122C494.204,378.276 492.466,373.615 488.99,370.14C485.514,366.664 480.893,364.926 475.126,364.926C469.438,364.926 464.58,366.901 460.551,370.851C456.523,374.8 454.074,380.567 453.205,388.151L422.515,382.937C424.648,372.43 427.867,364.037 432.172,357.757C436.477,351.477 442.481,346.539 450.183,342.945C457.885,339.351 466.516,337.554 476.074,337.554C492.426,337.554 505.54,342.767 515.414,353.195C523.551,361.726 527.619,371.364 527.619,382.107C527.619,397.354 519.285,409.519 502.617,418.604C512.57,420.737 520.529,425.516 526.493,432.942C532.458,440.367 535.44,449.333 535.44,459.84C535.44,475.086 529.871,488.081 518.732,498.824C507.594,509.568 493.73,514.94 477.141,514.94C461.42,514.94 448.386,510.417 438.037,501.372C427.689,492.327 421.685,480.497 420.026,465.883Z" style="fill:rgb(60,60,60);fill-rule:nonzero;stroke:white;stroke-width:2.27px;stroke-linecap:butt;stroke-miterlimit:2;"/>
        <path d="M612.461,337.554C629.287,337.554 642.44,343.557 651.92,355.565C663.216,369.784 668.865,393.364 668.865,426.306C668.865,459.168 663.177,482.788 651.801,497.166C642.401,509.015 629.287,514.94 612.461,514.94C595.556,514.94 581.929,508.442 571.581,495.447C561.232,482.453 556.058,459.287 556.058,425.95C556.058,393.246 561.746,369.705 573.121,355.328C582.522,343.478 595.635,337.554 612.461,337.554ZM612.461,365.163C608.432,365.163 604.838,366.446 601.678,369.014C598.518,371.581 596.069,376.183 594.332,382.818C592.041,391.429 590.895,405.925 590.895,426.306C590.895,446.687 591.922,460.689 593.976,468.312C596.03,475.935 598.617,481.011 601.737,483.539C604.858,486.067 608.432,487.331 612.461,487.331C616.49,487.331 620.084,486.047 623.244,483.479C626.404,480.912 628.853,476.311 630.591,469.675C632.882,461.143 634.027,446.687 634.027,426.306C634.027,405.925 633,391.923 630.946,384.3C628.892,376.677 626.305,371.581 623.185,369.014C620.065,366.446 616.49,365.163 612.461,365.163Z" style="fill:rgb(60,60,60);fill-rule:nonzero;stroke:white;stroke-width:2.27px;stroke-linecap:butt;stroke-miterlimit:2;"/>
    </g>
</svg>

